<svg xmlns="http://www.w3.org/2000/svg" viewBox="0 0 800 350" width="800" height="350" font-family="Segoe UI, sans-serif"><rect x="0" y="0" width="800" height="350" fill="#FAFAFA" rx="8" /><text x="400" y="30" text-anchor="middle" font-size="18" font-weight="bold" fill="#1A237E">Fluxo de Code Review</text><circle cx="85.0" cy="195.0" r="22" fill="#C8E6C9" stroke="#2E7D32" stroke-width="2" /><text x="85.0" y="199.0" text-anchor="middle" font-size="8" fill="#1B5E20" font-weight="bold">PR aberto</text><rect x="130.0" y="173.0" width="90.0" height="44" rx="6" fill="#E3F2FD" stroke="#1565C0" stroke-width="2" /><text x="175.0" y="199.0" text-anchor="middle" font-size="9" fill="#1565C0" font-weight="bold">CI executa</text><polygon points="265.0,173.0 310.0,195.0 265.0,217.0 220.0,195.0" fill="#FFF9C4" stroke="#F57F17" stroke-width="2" /><text x="265.0" y="199.0" text-anchor="middle" font-size="8" fill="#F57F17" font-weight="bold">?</text><rect x="310.0" y="173.0" width="90.0" height="44" rx="6" fill="#E3F2FD" stroke="#1565C0" stroke-width="2" /><text x="355.0" y="199.0" text-anchor="middle" font-size="9" fill="#1565C0" font-weight="bold">Code review</text><rect x="400.0" y="173.0" width="90.0" height="44" rx="6" fill="#E3F2FD" stroke="#1565C0" stroke-width="2" /><text x="445.0" y="199.0" text-anchor="middle" font-size="9" fill="#1565C0" font-weight="bold">Aprovacao arquit</text><polygon points="535.0,173.0 580.0,195.0 535.0,217.0 490.0,195.0" fill="#FFF9C4" stroke="#F57F17" stroke-width="2" /><text x="535.0" y="199.0" text-anchor="middle" font-size="8" fill="#F57F17" font-weight="bold">?</text><rect x="580.0" y="173.0" width="90.0" height="44" rx="6" fill="#E3F2FD" stroke="#1565C0" stroke-width="2" /><text x="625.0" y="199.0" text-anchor="middle" font-size="9" fill="#1565C0" font-weight="bold">Merge na main</text><circle cx="715.0" cy="195.0" r="22" fill="#FFCDD2" stroke="#C62828" stroke-width="2" /><circle cx="715.0" cy="195.0" r="18" fill="none" stroke="#C62828" stroke-width="1.5" /><text x="715.0" y="199.0" text-anchor="middle" font-size="8" fill="#B71C1C" font-weight="bold">Concluido</text><line x1="85.0" y1="195.0" x2="175.0" y2="195.0" stroke="#555" stroke-width="1.5" /><line x1="175.0" y1="195.0" x2="265.0" y2="195.0" stroke="#555" stroke-width="1.5" /><line x1="265.0" y1="195.0" x2="355.0" y2="195.0" stroke="#555" stroke-width="1.5" /><text x="310.0" y="185.0" text-anchor="middle" font-size="9" fill="#555" font-weight="bold">Sim</text><line x1="265.0" y1="195.0" x2="715.0" y2="195.0" stroke="#555" stroke-width="1.5" /><text x="490.0" y="185.0" text-anchor="middle" font-size="9" fill="#555" font-weight="bold">Nao</text><line x1="355.0" y1="195.0" x2="445.0" y2="195.0" stroke="#555" stroke-width="1.5" /><line x1="445.0" y1="195.0" x2="535.0" y2="195.0" stroke="#555" stroke-width="1.5" /><line x1="535.0" y1="195.0" x2="625.0" y2="195.0" stroke="#555" stroke-width="1.5" /><text x="580.0" y="185.0" text-anchor="middle" font-size="9" fill="#555" font-weight="bold">Sim</text><line x1="535.0" y1="195.0" x2="175.0" y2="195.0" stroke="#555" stroke-width="1.5" /><text x="355.0" y="185.0" text-anchor="middle" font-size="9" fill="#555" font-weight="bold">Corrigir</text><line x1="625.0" y1="195.0" x2="715.0" y2="195.0" stroke="#555" stroke-width="1.5" /></svg>