<svg xmlns="http://www.w3.org/2000/svg" viewBox="0 0 800 400" width="800" height="400" font-family="Segoe UI, sans-serif"><rect x="0" y="0" width="800" height="400" fill="#FAFAFA" rx="8" /><text x="400" y="30" text-anchor="middle" font-size="18" font-weight="bold" fill="#1A237E">Calendario de Governanca e Operacao</text><text x="200.0" y="50" text-anchor="middle" font-size="9" fill="#757575">S1</text><text x="206.22222222222223" y="50" text-anchor="middle" font-size="9" fill="#757575">S2</text><text x="212.44444444444446" y="50" text-anchor="middle" font-size="9" fill="#757575">S3</text><text x="218.66666666666666" y="50" text-anchor="middle" font-size="9" fill="#757575">S4</text><text x="224.88888888888889" y="50" text-anchor="middle" font-size="9" fill="#757575">S5</text><text x="231.11111111111111" y="50" text-anchor="middle" font-size="9" fill="#757575">S6</text><text x="237.33333333333334" y="50" text-anchor="middle" font-size="9" fill="#757575">S7</text><text x="243.55555555555554" y="50" text-anchor="middle" font-size="9" fill="#757575">S8</text><text x="249.77777777777777" y="50" text-anchor="middle" font-size="9" fill="#757575">S9</text><text x="256.0" y="50" text-anchor="middle" font-size="9" fill="#757575">S10</text><text x="262.22222222222223" y="50" text-anchor="middle" font-size="9" fill="#757575">S11</text><text x="268.44444444444446" y="50" text-anchor="middle" font-size="9" fill="#757575">S12</text><text x="274.6666666666667" y="50" text-anchor="middle" font-size="9" fill="#757575">S13</text><text x="280.8888888888889" y="50" text-anchor="middle" font-size="9" fill="#757575">S14</text><text x="287.1111111111111" y="50" text-anchor="middle" font-size="9" fill="#757575">S15</text><text x="293.3333333333333" y="50" text-anchor="middle" font-size="9" fill="#757575">S16</text><text x="299.55555555555554" y="50" text-anchor="middle" font-size="9" fill="#757575">S17</text><text x="305.77777777777777" y="50" text-anchor="middle" font-size="9" fill="#757575">S18</text><text x="312.0" y="50" text-anchor="middle" font-size="9" fill="#757575">S19</text><text x="318.22222222222223" y="50" text-anchor="middle" font-size="9" fill="#757575">S20</text><text x="324.44444444444446" y="50" text-anchor="middle" font-size="9" fill="#757575">S21</text><text x="330.66666666666663" y="50" text-anchor="middle" font-size="9" fill="#757575">S22</text><text x="336.8888888888889" y="50" text-anchor="middle" font-size="9" fill="#757575">S23</text><text x="343.1111111111111" y="50" text-anchor="middle" font-size="9" fill="#757575">S24</text><text x="349.33333333333337" y="50" text-anchor="middle" font-size="9" fill="#757575">S25</text><text x="355.55555555555554" y="50" text-anchor="middle" font-size="9" fill="#757575">S26</text><text x="361.77777777777777" y="50" text-anchor="middle" font-size="9" fill="#757575">S27</text><text x="368.0" y="50" text-anchor="middle" font-size="9" fill="#757575">S28</text><text x="374.22222222222223" y="50" text-anchor="middle" font-size="9" fill="#757575">S29</text><text x="380.44444444444446" y="50" text-anchor="middle" font-size="9" fill="#757575">S30</text><text x="386.66666666666663" y="50" text-anchor="middle" font-size="9" fill="#757575">S31</text><text x="392.8888888888889" y="50" text-anchor="middle" font-size="9" fill="#757575">S32</text><text x="399.1111111111111" y="50" text-anchor="middle" font-size="9" fill="#757575">S33</text><text x="405.33333333333337" y="50" text-anchor="middle" font-size="9" fill="#757575">S34</text><text x="411.55555555555554" y="50" text-anchor="middle" font-size="9" fill="#757575">S35</text><text x="417.77777777777777" y="50" text-anchor="middle" font-size="9" fill="#757575">S36</text><text x="424.0" y="50" text-anchor="middle" font-size="9" fill="#757575">S37</text><text x="430.22222222222223" y="50" text-anchor="middle" font-size="9" fill="#757575">S38</text><text x="436.44444444444446" y="50" text-anchor="middle" font-size="9" fill="#757575">S39</text><text x="442.66666666666663" y="50" text-anchor="middle" font-size="9" fill="#757575">S40</text><text x="448.8888888888889" y="50" text-anchor="middle" font-size="9" fill="#757575">S41</text><text x="455.1111111111111" y="50" text-anchor="middle" font-size="9" fill="#757575">S42</text><text x="461.3333333333333" y="50" text-anchor="middle" font-size="9" fill="#757575">S43</text><text x="467.55555555555554" y="50" text-anchor="middle" font-size="9" fill="#757575">S44</text><text x="473.77777777777777" y="50" text-anchor="middle" font-size="9" fill="#757575">S45</text><text x="480.0" y="50" text-anchor="middle" font-size="9" fill="#757575">S46</text><text x="486.22222222222223" y="50" text-anchor="middle" font-size="9" fill="#757575">S47</text><text x="492.44444444444446" y="50" text-anchor="middle" font-size="9" fill="#757575">S48</text><text x="498.6666666666667" y="50" text-anchor="middle" font-size="9" fill="#757575">S49</text><text x="504.8888888888889" y="50" text-anchor="middle" font-size="9" fill="#757575">S50</text><text x="511.11111111111114" y="50" text-anchor="middle" font-size="9" fill="#757575">S51</text><text x="517.3333333333333" y="50" text-anchor="middle" font-size="9" fill="#757575">S52</text><text x="523.5555555555555" y="50" text-anchor="middle" font-size="9" fill="#757575">S53</text><text x="529.7777777777778" y="50" text-anchor="middle" font-size="9" fill="#757575">S54</text><text x="536.0" y="50" text-anchor="middle" font-size="9" fill="#757575">S55</text><text x="542.2222222222222" y="50" text-anchor="middle" font-size="9" fill="#757575">S56</text><text x="548.4444444444445" y="50" text-anchor="middle" font-size="9" fill="#757575">S57</text><text x="554.6666666666667" y="50" text-anchor="middle" font-size="9" fill="#757575">S58</text><text x="560.8888888888889" y="50" text-anchor="middle" font-size="9" fill="#757575">S59</text><text x="567.1111111111111" y="50" text-anchor="middle" font-size="9" fill="#757575">S60</text><text x="573.3333333333333" y="50" text-anchor="middle" font-size="9" fill="#757575">S61</text><text x="579.5555555555555" y="50" text-anchor="middle" font-size="9" fill="#757575">S62</text><text x="585.7777777777778" y="50" text-anchor="middle" font-size="9" fill="#757575">S63</text><text x="592.0" y="50" text-anchor="middle" font-size="9" fill="#757575">S64</text><text x="598.2222222222222" y="50" text-anchor="middle" font-size="9" fill="#757575">S65</text><text x="604.4444444444445" y="50" text-anchor="middle" font-size="9" fill="#757575">S66</text><text x="610.6666666666667" y="50" text-anchor="middle" font-size="9" fill="#757575">S67</text><text x="616.8888888888889" y="50" text-anchor="middle" font-size="9" fill="#757575">S68</text><text x="623.1111111111111" y="50" text-anchor="middle" font-size="9" fill="#757575">S69</text><text x="629.3333333333333" y="50" text-anchor="middle" font-size="9" fill="#757575">S70</text><text x="635.5555555555555" y="50" text-anchor="middle" font-size="9" fill="#757575">S71</text><text x="641.7777777777778" y="50" text-anchor="middle" font-size="9" fill="#757575">S72</text><text x="648.0" y="50" text-anchor="middle" font-size="9" fill="#757575">S73</text><text x="654.2222222222222" y="50" text-anchor="middle" font-size="9" fill="#757575">S74</text><text x="660.4444444444445" y="50" text-anchor="middle" font-size="9" fill="#757575">S75</text><text x="666.6666666666667" y="50" text-anchor="middle" font-size="9" fill="#757575">S76</text><text x="672.8888888888889" y="50" text-anchor="middle" font-size="9" fill="#757575">S77</text><text x="679.1111111111111" y="50" text-anchor="middle" font-size="9" fill="#757575">S78</text><text x="685.3333333333333" y="50" text-anchor="middle" font-size="9" fill="#757575">S79</text><text x="691.5555555555555" y="50" text-anchor="middle" font-size="9" fill="#757575">S80</text><text x="697.7777777777778" y="50" text-anchor="middle" font-size="9" fill="#757575">S81</text><text x="704.0" y="50" text-anchor="middle" font-size="9" fill="#757575">S82</text><text x="710.2222222222222" y="50" text-anchor="middle" font-size="9" fill="#757575">S83</text><text x="716.4444444444445" y="50" text-anchor="middle" font-size="9" fill="#757575">S84</text><text x="722.6666666666666" y="50" text-anchor="middle" font-size="9" fill="#757575">S85</text><text x="728.8888888888889" y="50" text-anchor="middle" font-size="9" fill="#757575">S86</text><text x="735.1111111111111" y="50" text-anchor="middle" font-size="9" fill="#757575">S87</text><text x="741.3333333333334" y="50" text-anchor="middle" font-size="9" fill="#757575">S88</text><text x="747.5555555555555" y="50" text-anchor="middle" font-size="9" fill="#757575">S89</text><text x="753.7777777777778" y="50" text-anchor="middle" font-size="9" fill="#757575">S90</text><text x="760.0" y="50" text-anchor="middle" font-size="9" fill="#757575">S91</text><line x1="200.0" y1="60" x2="200.0" y2="380" stroke="#E0E0E0" stroke-width="0.5" /><line x1="206.22222222222223" y1="60" x2="206.22222222222223" y2="380" stroke="#E0E0E0" stroke-width="0.5" /><line x1="212.44444444444446" y1="60" x2="212.44444444444446" y2="380" stroke="#E0E0E0" stroke-width="0.5" /><line x1="218.66666666666666" y1="60" x2="218.66666666666666" y2="380" stroke="#E0E0E0" stroke-width="0.5" /><line x1="224.88888888888889" y1="60" x2="224.88888888888889" y2="380" stroke="#E0E0E0" stroke-width="0.5" /><line x1="231.11111111111111" y1="60" x2="231.11111111111111" y2="380" stroke="#E0E0E0" stroke-width="0.5" /><line x1="237.33333333333334" y1="60" x2="237.33333333333334" y2="380" stroke="#E0E0E0" stroke-width="0.5" /><line x1="243.55555555555554" y1="60" x2="243.55555555555554" y2="380" stroke="#E0E0E0" stroke-width="0.5" /><line x1="249.77777777777777" y1="60" x2="249.77777777777777" y2="380" stroke="#E0E0E0" stroke-width="0.5" /><line x1="256.0" y1="60" x2="256.0" y2="380" stroke="#E0E0E0" stroke-width="0.5" /><line x1="262.22222222222223" y1="60" x2="262.22222222222223" y2="380" stroke="#E0E0E0" stroke-width="0.5" /><line x1="268.44444444444446" y1="60" x2="268.44444444444446" y2="380" stroke="#E0E0E0" stroke-width="0.5" /><line x1="274.6666666666667" y1="60" x2="274.6666666666667" y2="380" stroke="#E0E0E0" stroke-width="0.5" /><line x1="280.8888888888889" y1="60" x2="280.8888888888889" y2="380" stroke="#E0E0E0" stroke-width="0.5" /><line x1="287.1111111111111" y1="60" x2="287.1111111111111" y2="380" stroke="#E0E0E0" stroke-width="0.5" /><line x1="293.3333333333333" y1="60" x2="293.3333333333333" y2="380" stroke="#E0E0E0" stroke-width="0.5" /><line x1="299.55555555555554" y1="60" x2="299.55555555555554" y2="380" stroke="#E0E0E0" stroke-width="0.5" /><line x1="305.77777777777777" y1="60" x2="305.77777777777777" y2="380" stroke="#E0E0E0" stroke-width="0.5" /><line x1="312.0" y1="60" x2="312.0" y2="380" stroke="#E0E0E0" stroke-width="0.5" /><line x1="318.22222222222223" y1="60" x2="318.22222222222223" y2="380" stroke="#E0E0E0" stroke-width="0.5" /><line x1="324.44444444444446" y1="60" x2="324.44444444444446" y2="380" stroke="#E0E0E0" stroke-width="0.5" /><line x1="330.66666666666663" y1="60" x2="330.66666666666663" y2="380" stroke="#E0E0E0" stroke-width="0.5" /><line x1="336.8888888888889" y1="60" x2="336.8888888888889" y2="380" stroke="#E0E0E0" stroke-width="0.5" /><line x1="343.1111111111111" y1="60" x2="343.1111111111111" y2="380" stroke="#E0E0E0" stroke-width="0.5" /><line x1="349.33333333333337" y1="60" x2="349.33333333333337" y2="380" stroke="#E0E0E0" stroke-width="0.5" /><line x1="355.55555555555554" y1="60" x2="355.55555555555554" y2="380" stroke="#E0E0E0" stroke-width="0.5" /><line x1="361.77777777777777" y1="60" x2="361.77777777777777" y2="380" stroke="#E0E0E0" stroke-width="0.5" /><line x1="368.0" y1="60" x2="368.0" y2="380" stroke="#E0E0E0" stroke-width="0.5" /><line x1="374.22222222222223" y1="60" x2="374.22222222222223" y2="380" stroke="#E0E0E0" stroke-width="0.5" /><line x1="380.44444444444446" y1="60" x2="380.44444444444446" y2="380" stroke="#E0E0E0" stroke-width="0.5" /><line x1="386.66666666666663" y1="60" x2="386.66666666666663" y2="380" stroke="#E0E0E0" stroke-width="0.5" /><line x1="392.8888888888889" y1="60" x2="392.8888888888889" y2="380" stroke="#E0E0E0" stroke-width="0.5" /><line x1="399.1111111111111" y1="60" x2="399.1111111111111" y2="380" stroke="#E0E0E0" stroke-width="0.5" /><line x1="405.33333333333337" y1="60" x2="405.33333333333337" y2="380" stroke="#E0E0E0" stroke-width="0.5" /><line x1="411.55555555555554" y1="60" x2="411.55555555555554" y2="380" stroke="#E0E0E0" stroke-width="0.5" /><line x1="417.77777777777777" y1="60" x2="417.77777777777777" y2="380" stroke="#E0E0E0" stroke-width="0.5" /><line x1="424.0" y1="60" x2="424.0" y2="380" stroke="#E0E0E0" stroke-width="0.5" /><line x1="430.22222222222223" y1="60" x2="430.22222222222223" y2="380" stroke="#E0E0E0" stroke-width="0.5" /><line x1="436.44444444444446" y1="60" x2="436.44444444444446" y2="380" stroke="#E0E0E0" stroke-width="0.5" /><line x1="442.66666666666663" y1="60" x2="442.66666666666663" y2="380" stroke="#E0E0E0" stroke-width="0.5" /><line x1="448.8888888888889" y1="60" x2="448.8888888888889" y2="380" stroke="#E0E0E0" stroke-width="0.5" /><line x1="455.1111111111111" y1="60" x2="455.1111111111111" y2="380" stroke="#E0E0E0" stroke-width="0.5" /><line x1="461.3333333333333" y1="60" x2="461.3333333333333" y2="380" stroke="#E0E0E0" stroke-width="0.5" /><line x1="467.55555555555554" y1="60" x2="467.55555555555554" y2="380" stroke="#E0E0E0" stroke-width="0.5" /><line x1="473.77777777777777" y1="60" x2="473.77777777777777" y2="380" stroke="#E0E0E0" stroke-width="0.5" /><line x1="480.0" y1="60" x2="480.0" y2="380" stroke="#E0E0E0" stroke-width="0.5" /><line x1="486.22222222222223" y1="60" x2="486.22222222222223" y2="380" stroke="#E0E0E0" stroke-width="0.5" /><line x1="492.44444444444446" y1="60" x2="492.44444444444446" y2="380" stroke="#E0E0E0" stroke-width="0.5" /><line x1="498.6666666666667" y1="60" x2="498.6666666666667" y2="380" stroke="#E0E0E0" stroke-width="0.5" /><line x1="504.8888888888889" y1="60" x2="504.8888888888889" y2="380" stroke="#E0E0E0" stroke-width="0.5" /><line x1="511.11111111111114" y1="60" x2="511.11111111111114" y2="380" stroke="#E0E0E0" stroke-width="0.5" /><line x1="517.3333333333333" y1="60" x2="517.3333333333333" y2="380" stroke="#E0E0E0" stroke-width="0.5" /><line x1="523.5555555555555" y1="60" x2="523.5555555555555" y2="380" stroke="#E0E0E0" stroke-width="0.5" /><line x1="529.7777777777778" y1="60" x2="529.7777777777778" y2="380" stroke="#E0E0E0" stroke-width="0.5" /><line x1="536.0" y1="60" x2="536.0" y2="380" stroke="#E0E0E0" stroke-width="0.5" /><line x1="542.2222222222222" y1="60" x2="542.2222222222222" y2="380" stroke="#E0E0E0" stroke-width="0.5" /><line x1="548.4444444444445" y1="60" x2="548.4444444444445" y2="380" stroke="#E0E0E0" stroke-width="0.5" /><line x1="554.6666666666667" y1="60" x2="554.6666666666667" y2="380" stroke="#E0E0E0" stroke-width="0.5" /><line x1="560.8888888888889" y1="60" x2="560.8888888888889" y2="380" stroke="#E0E0E0" stroke-width="0.5" /><line x1="567.1111111111111" y1="60" x2="567.1111111111111" y2="380" stroke="#E0E0E0" stroke-width="0.5" /><line x1="573.3333333333333" y1="60" x2="573.3333333333333" y2="380" stroke="#E0E0E0" stroke-width="0.5" /><line x1="579.5555555555555" y1="60" x2="579.5555555555555" y2="380" stroke="#E0E0E0" stroke-width="0.5" /><line x1="585.7777777777778" y1="60" x2="585.7777777777778" y2="380" stroke="#E0E0E0" stroke-width="0.5" /><line x1="592.0" y1="60" x2="592.0" y2="380" stroke="#E0E0E0" stroke-width="0.5" /><line x1="598.2222222222222" y1="60" x2="598.2222222222222" y2="380" stroke="#E0E0E0" stroke-width="0.5" /><line x1="604.4444444444445" y1="60" x2="604.4444444444445" y2="380" stroke="#E0E0E0" stroke-width="0.5" /><line x1="610.6666666666667" y1="60" x2="610.6666666666667" y2="380" stroke="#E0E0E0" stroke-width="0.5" /><line x1="616.8888888888889" y1="60" x2="616.8888888888889" y2="380" stroke="#E0E0E0" stroke-width="0.5" /><line x1="623.1111111111111" y1="60" x2="623.1111111111111" y2="380" stroke="#E0E0E0" stroke-width="0.5" /><line x1="629.3333333333333" y1="60" x2="629.3333333333333" y2="380" stroke="#E0E0E0" stroke-width="0.5" /><line x1="635.5555555555555" y1="60" x2="635.5555555555555" y2="380" stroke="#E0E0E0" stroke-width="0.5" /><line x1="641.7777777777778" y1="60" x2="641.7777777777778" y2="380" stroke="#E0E0E0" stroke-width="0.5" /><line x1="648.0" y1="60" x2="648.0" y2="380" stroke="#E0E0E0" stroke-width="0.5" /><line x1="654.2222222222222" y1="60" x2="654.2222222222222" y2="380" stroke="#E0E0E0" stroke-width="0.5" /><line x1="660.4444444444445" y1="60" x2="660.4444444444445" y2="380" stroke="#E0E0E0" stroke-width="0.5" /><line x1="666.6666666666667" y1="60" x2="666.6666666666667" y2="380" stroke="#E0E0E0" stroke-width="0.5" /><line x1="672.8888888888889" y1="60" x2="672.8888888888889" y2="380" stroke="#E0E0E0" stroke-width="0.5" /><line x1="679.1111111111111" y1="60" x2="679.1111111111111" y2="380" stroke="#E0E0E0" stroke-width="0.5" /><line x1="685.3333333333333" y1="60" x2="685.3333333333333" y2="380" stroke="#E0E0E0" stroke-width="0.5" /><line x1="691.5555555555555" y1="60" x2="691.5555555555555" y2="380" stroke="#E0E0E0" stroke-width="0.5" /><line x1="697.7777777777778" y1="60" x2="697.7777777777778" y2="380" stroke="#E0E0E0" stroke-width="0.5" /><line x1="704.0" y1="60" x2="704.0" y2="380" stroke="#E0E0E0" stroke-width="0.5" /><line x1="710.2222222222222" y1="60" x2="710.2222222222222" y2="380" stroke="#E0E0E0" stroke-width="0.5" /><line x1="716.4444444444445" y1="60" x2="716.4444444444445" y2="380" stroke="#E0E0E0" stroke-width="0.5" /><line x1="722.6666666666666" y1="60" x2="722.6666666666666" y2="380" stroke="#E0E0E0" stroke-width="0.5" /><line x1="728.8888888888889" y1="60" x2="728.8888888888889" y2="380" stroke="#E0E0E0" stroke-width="0.5" /><line x1="735.1111111111111" y1="60" x2="735.1111111111111" y2="380" stroke="#E0E0E0" stroke-width="0.5" /><line x1="741.3333333333334" y1="60" x2="741.3333333333334" y2="380" stroke="#E0E0E0" stroke-width="0.5" /><line x1="747.5555555555555" y1="60" x2="747.5555555555555" y2="380" stroke="#E0E0E0" stroke-width="0.5" /><line x1="753.7777777777778" y1="60" x2="753.7777777777778" y2="380" stroke="#E0E0E0" stroke-width="0.5" /><line x1="760.0" y1="60" x2="760.0" y2="380" stroke="#E0E0E0" stroke-width="0.5" /><text x="190" y="80" text-anchor="end" font-size="11" fill="#212121">Dependency Patches</text><rect x="200.0" y="65" width="6.222222222222222" height="20" rx="4" fill="#1565C0" /><text x="203.11111111111111" y="80" text-anchor="middle" font-size="9" fill="white" font-weight="bold">W1</text><text x="190" y="116" text-anchor="end" font-size="11" fill="#212121">Dependency Minors</text><rect x="206.22222222222223" y="101" width="43.55555555555556" height="20" rx="4" fill="#1565C0" /><text x="228.0" y="116" text-anchor="middle" font-size="9" fill="white" font-weight="bold">W2-W8</text><text x="190" y="152" text-anchor="end" font-size="11" fill="#212121">Dependency Majors</text><rect x="287.1111111111111" y="137" width="87.11111111111111" height="20" rx="4" fill="#1565C0" /><text x="330.66666666666663" y="152" text-anchor="middle" font-size="9" fill="white" font-weight="bold">W15-W28</text><text x="190" y="188" text-anchor="end" font-size="11" fill="#212121">Daily Full Backup</text><rect x="200.0" y="173" width="186.66666666666666" height="20" rx="4" fill="#00BFA5" /><text x="293.3333333333333" y="188" text-anchor="middle" font-size="9" fill="white" font-weight="bold">W1-W30</text><text x="190" y="224" text-anchor="end" font-size="11" fill="#212121">Key Rotation</text><rect x="200.0" y="209" width="560.0" height="20" rx="4" fill="#00BFA5" /><text x="480.0" y="224" text-anchor="middle" font-size="9" fill="white" font-weight="bold">W1-W90</text><text x="190" y="260" text-anchor="end" font-size="11" fill="#212121">SLO Latency Window</text><rect x="200.0" y="245" width="174.22222222222223" height="20" rx="4" fill="#FF8F00" /><text x="287.1111111111111" y="260" text-anchor="middle" font-size="9" fill="white" font-weight="bold">W1-W28</text><text x="190" y="296" text-anchor="end" font-size="11" fill="#212121">SLO Availability Window</text><rect x="200.0" y="281" width="186.66666666666666" height="20" rx="4" fill="#FF8F00" /><text x="293.3333333333333" y="296" text-anchor="middle" font-size="9" fill="white" font-weight="bold">W1-W30</text><text x="190" y="332" text-anchor="end" font-size="11" fill="#212121">Quarterly Report</text><rect x="666.6666666666667" y="317" width="93.33333333333333" height="20" rx="4" fill="#FF8F00" /><text x="713.3333333333334" y="332" text-anchor="middle" font-size="9" fill="white" font-weight="bold">W76-W90</text></svg>