<svg xmlns="http://www.w3.org/2000/svg" viewBox="0 0 800 500" width="800" height="500" font-family="Segoe UI, sans-serif"><rect x="0" y="0" width="800" height="500" fill="#FAFAFA" rx="8" /><text x="400" y="35" text-anchor="middle" font-size="20" font-weight="bold" fill="#1A237E">Modelo Entidade-Relacionamento Enterprise</text><rect x="-82.0" y="80" width="180" height="150" rx="6" fill="#E3F2FD" stroke="#1565C0" stroke-width="2" /><text x="8.0" y="102" text-anchor="middle" font-size="14" font-weight="bold" fill="#1A237E">Tenant</text><line x1="-72.0" y1="112" x2="88.0" y2="112" stroke="#1565C0" stroke-width="1" /><text x="-70.0" y="130" font-size="11" fill="#212121">  id (PK)</text><text x="-70.0" y="150" font-size="11" fill="#212121">  slug (UQ)</text><text x="-70.0" y="170" font-size="11" fill="#212121">  name</text><text x="-70.0" y="190" font-size="11" fill="#212121">  plan</text><text x="-70.0" y="210" font-size="11" fill="#212121">  createdAt</text><rect x="16.0" y="80" width="180" height="170" rx="6" fill="#E3F2FD" stroke="#1565C0" stroke-width="2" /><text x="106.0" y="102" text-anchor="middle" font-size="14" font-weight="bold" fill="#1A237E">User</text><line x1="26.0" y1="112" x2="186.0" y2="112" stroke="#1565C0" stroke-width="1" /><text x="28.0" y="130" font-size="11" fill="#212121">  id (PK)</text><text x="28.0" y="150" font-size="11" fill="#212121">  email</text><text x="28.0" y="170" font-size="11" fill="#212121">  name</text><text x="28.0" y="190" font-size="11" fill="#212121">  role</text><text x="28.0" y="210" font-size="11" fill="#212121">  tenantId (FK)</text><text x="28.0" y="230" font-size="11" fill="#212121">  deletedAt</text><rect x="114.0" y="80" width="180" height="130" rx="6" fill="#E3F2FD" stroke="#1565C0" stroke-width="2" /><text x="204.0" y="102" text-anchor="middle" font-size="14" font-weight="bold" fill="#1A237E">Profile</text><line x1="124.0" y1="112" x2="284.0" y2="112" stroke="#1565C0" stroke-width="1" /><text x="126.0" y="130" font-size="11" fill="#212121">  id (PK)</text><text x="126.0" y="150" font-size="11" fill="#212121">  bio</text><text x="126.0" y="170" font-size="11" fill="#212121">  avatarUrl</text><text x="126.0" y="190" font-size="11" fill="#212121">  userId (FK UQ)</text><rect x="212.0" y="80" width="180" height="190" rx="6" fill="#E3F2FD" stroke="#1565C0" stroke-width="2" /><text x="302.0" y="102" text-anchor="middle" font-size="14" font-weight="bold" fill="#1A237E">Product</text><line x1="222.0" y1="112" x2="382.0" y2="112" stroke="#1565C0" stroke-width="1" /><text x="224.0" y="130" font-size="11" fill="#212121">  id (PK)</text><text x="224.0" y="150" font-size="11" fill="#212121">  sku (UQ)</text><text x="224.0" y="170" font-size="11" fill="#212121">  name</text><text x="224.0" y="190" font-size="11" fill="#212121">  price</text><text x="224.0" y="210" font-size="11" fill="#212121">  stock</text><text x="224.0" y="230" font-size="11" fill="#212121">  tenantId (FK)</text><text x="224.0" y="250" font-size="11" fill="#212121">  deletedAt</text><rect x="310.0" y="80" width="180" height="90" rx="6" fill="#E3F2FD" stroke="#1565C0" stroke-width="2" /><text x="400.0" y="102" text-anchor="middle" font-size="14" font-weight="bold" fill="#1A237E">Category</text><line x1="320.0" y1="112" x2="480.0" y2="112" stroke="#1565C0" stroke-width="1" /><text x="322.0" y="130" font-size="11" fill="#212121">  id (PK)</text><text x="322.0" y="150" font-size="11" fill="#212121">  name</text><rect x="408.0" y="80" width="180" height="90" rx="6" fill="#E3F2FD" stroke="#1565C0" stroke-width="2" /><text x="498.0" y="102" text-anchor="middle" font-size="14" font-weight="bold" fill="#1A237E">ProductCategory</text><line x1="418.0" y1="112" x2="578.0" y2="112" stroke="#1565C0" stroke-width="1" /><text x="420.0" y="130" font-size="11" fill="#212121">  productId (FK)</text><text x="420.0" y="150" font-size="11" fill="#212121">  categoryId (FK)</text><rect x="506.0" y="80" width="180" height="150" rx="6" fill="#E3F2FD" stroke="#1565C0" stroke-width="2" /><text x="596.0" y="102" text-anchor="middle" font-size="14" font-weight="bold" fill="#1A237E">Order</text><line x1="516.0" y1="112" x2="676.0" y2="112" stroke="#1565C0" stroke-width="1" /><text x="518.0" y="130" font-size="11" fill="#212121">  id (PK)</text><text x="518.0" y="150" font-size="11" fill="#212121">  status</text><text x="518.0" y="170" font-size="11" fill="#212121">  total</text><text x="518.0" y="190" font-size="11" fill="#212121">  userId (FK)</text><text x="518.0" y="210" font-size="11" fill="#212121">  createdAt</text><rect x="604.0" y="80" width="180" height="130" rx="6" fill="#E3F2FD" stroke="#1565C0" stroke-width="2" /><text x="694.0" y="102" text-anchor="middle" font-size="14" font-weight="bold" fill="#1A237E">OrderItem</text><line x1="614.0" y1="112" x2="774.0" y2="112" stroke="#1565C0" stroke-width="1" /><text x="616.0" y="130" font-size="11" fill="#212121">  orderId (FK)</text><text x="616.0" y="150" font-size="11" fill="#212121">  productId (FK)</text><text x="616.0" y="170" font-size="11" fill="#212121">  quantity</text><text x="616.0" y="190" font-size="11" fill="#212121">  price</text><rect x="702.0" y="80" width="180" height="210" rx="6" fill="#E3F2FD" stroke="#1565C0" stroke-width="2" /><text x="792.0" y="102" text-anchor="middle" font-size="14" font-weight="bold" fill="#1A237E">AuditLog</text><line x1="712.0" y1="112" x2="872.0" y2="112" stroke="#1565C0" stroke-width="1" /><text x="714.0" y="130" font-size="11" fill="#212121">  id (PK)</text><text x="714.0" y="150" font-size="11" fill="#212121">  entity</text><text x="714.0" y="170" font-size="11" fill="#212121">  entityId</text><text x="714.0" y="190" font-size="11" fill="#212121">  action</text><text x="714.0" y="210" font-size="11" fill="#212121">  changes</text><text x="714.0" y="230" font-size="11" fill="#212121">  userId (FK)</text><text x="714.0" y="250" font-size="11" fill="#212121">  ip</text><text x="714.0" y="270" font-size="11" fill="#212121">  createdAt</text><line x1="8.0" y1="230" x2="106.0" y2="270.0" stroke="#757575" stroke-width="1.5" stroke-dasharray="4,3" /><text x="57.0" y="265.0" text-anchor="middle" font-size="11" fill="#1A237E" font-weight="bold">1:N</text><line x1="106.0" y1="250" x2="204.0" y2="260.0" stroke="#757575" stroke-width="1.5" stroke-dasharray="4,3" /><text x="155.0" y="255.0" text-anchor="middle" font-size="11" fill="#1A237E" font-weight="bold">1:1</text><line x1="106.0" y1="250" x2="596.0" y2="270.0" stroke="#757575" stroke-width="1.5" stroke-dasharray="4,3" /><text x="351.0" y="265.0" text-anchor="middle" font-size="11" fill="#1A237E" font-weight="bold">1:N</text><line x1="302.0" y1="270" x2="694.0" y2="270.0" stroke="#757575" stroke-width="1.5" stroke-dasharray="4,3" /><text x="498.0" y="265.0" text-anchor="middle" font-size="11" fill="#1A237E" font-weight="bold">1:N</text><line x1="596.0" y1="230" x2="694.0" y2="250.0" stroke="#757575" stroke-width="1.5" stroke-dasharray="4,3" /><text x="645.0" y="245.0" text-anchor="middle" font-size="11" fill="#1A237E" font-weight="bold">1:N</text><line x1="302.0" y1="270" x2="498.0" y2="250.0" stroke="#757575" stroke-width="1.5" stroke-dasharray="4,3" /><text x="400.0" y="245.0" text-anchor="middle" font-size="11" fill="#1A237E" font-weight="bold">N:M</text><line x1="400.0" y1="170" x2="498.0" y2="200.0" stroke="#757575" stroke-width="1.5" stroke-dasharray="4,3" /><text x="449.0" y="195.0" text-anchor="middle" font-size="11" fill="#1A237E" font-weight="bold">N:M</text><line x1="106.0" y1="250" x2="792.0" y2="300.0" stroke="#757575" stroke-width="1.5" stroke-dasharray="4,3" /><text x="449.0" y="295.0" text-anchor="middle" font-size="11" fill="#1A237E" font-weight="bold">1:N</text></svg>