<svg xmlns="http://www.w3.org/2000/svg" viewBox="0 0 900 500" width="900" height="500" font-family="Segoe UI, sans-serif"><rect x="0" y="0" width="900" height="500" fill="#FAFAFA" rx="8" /><text x="450" y="40" text-anchor="middle" font-size="22" font-weight="bold" fill="#1A237E">Arquitetura de Referencia Backend</text><text x="30" y="110.0" text-anchor="start" font-size="12" font-weight="bold" fill="#757575">Cliente</text><rect x="305.0" y="80" width="130" height="50" fill="#E3F2FD" stroke="#1A237E" stroke-width="2" rx="6" /><text x="370.0" y="110.0" text-anchor="middle" font-size="13" font-weight="600" fill="#1A237E">Web App</text><rect x="465.0" y="80" width="130" height="50" fill="#E3F2FD" stroke="#1A237E" stroke-width="2" rx="6" /><text x="530.0" y="110.0" text-anchor="middle" font-size="13" font-weight="600" fill="#1A237E">Mobile App</text><text x="30" y="230.0" text-anchor="start" font-size="12" font-weight="bold" fill="#757575">Gateway</text><rect x="305.0" y="200" width="130" height="50" fill="#E8F5E9" stroke="#1A237E" stroke-width="2" rx="6" /><text x="370.0" y="230.0" text-anchor="middle" font-size="13" font-weight="600" fill="#1A237E">API Gateway</text><rect x="465.0" y="200" width="130" height="50" fill="#E8F5E9" stroke="#1A237E" stroke-width="2" rx="6" /><text x="530.0" y="230.0" text-anchor="middle" font-size="13" font-weight="600" fill="#1A237E">Load Balancer</text><text x="30" y="350.0" text-anchor="start" font-size="12" font-weight="bold" fill="#757575">Servicos</text><rect x="225.0" y="320" width="130" height="50" fill="#FFF3E0" stroke="#1A237E" stroke-width="2" rx="6" /><text x="290.0" y="350.0" text-anchor="middle" font-size="13" font-weight="600" fill="#1A237E">Auth</text><rect x="385.0" y="320" width="130" height="50" fill="#FFF3E0" stroke="#1A237E" stroke-width="2" rx="6" /><text x="450.0" y="350.0" text-anchor="middle" font-size="13" font-weight="600" fill="#1A237E">Core API</text><rect x="545.0" y="320" width="130" height="50" fill="#FFF3E0" stroke="#1A237E" stroke-width="2" rx="6" /><text x="610.0" y="350.0" text-anchor="middle" font-size="13" font-weight="600" fill="#1A237E">Notifications</text><text x="30" y="470.0" text-anchor="start" font-size="12" font-weight="bold" fill="#757575">Dados</text><rect x="225.0" y="440" width="130" height="50" fill="#E3F2FD" stroke="#1A237E" stroke-width="2" rx="6" /><text x="290.0" y="470.0" text-anchor="middle" font-size="13" font-weight="600" fill="#1A237E">PostgreSQL</text><rect x="385.0" y="440" width="130" height="50" fill="#E3F2FD" stroke="#1A237E" stroke-width="2" rx="6" /><text x="450.0" y="470.0" text-anchor="middle" font-size="13" font-weight="600" fill="#1A237E">Redis</text><rect x="545.0" y="440" width="130" height="50" fill="#E3F2FD" stroke="#1A237E" stroke-width="2" rx="6" /><text x="610.0" y="470.0" text-anchor="middle" font-size="13" font-weight="600" fill="#1A237E">S3</text><defs><marker id="arrowhead" markerWidth="10" markerHeight="7" refX="9" refY="3.5" orient="auto"><polygon points="0 0, 10 3.5, 0 7" fill="#757575" /></marker></defs><line x1="370.0" y1="130.0" x2="370.0" y2="200.0" stroke="#757575" stroke-width="2" marker-end="url(#arrowhead)" /><line x1="530.0" y1="130.0" x2="370.0" y2="200.0" stroke="#757575" stroke-width="2" marker-end="url(#arrowhead)" /><line x1="370.0" y1="250.0" x2="290.0" y2="320.0" stroke="#757575" stroke-width="2" marker-end="url(#arrowhead)" /><line x1="370.0" y1="250.0" x2="450.0" y2="320.0" stroke="#757575" stroke-width="2" marker-end="url(#arrowhead)" /><line x1="450.0" y1="370.0" x2="610.0" y2="320.0" stroke="#757575" stroke-width="2" marker-end="url(#arrowhead)" /><line x1="450.0" y1="370.0" x2="290.0" y2="440.0" stroke="#757575" stroke-width="2" marker-end="url(#arrowhead)" /><line x1="450.0" y1="370.0" x2="450.0" y2="440.0" stroke="#757575" stroke-width="2" marker-end="url(#arrowhead)" /><line x1="450.0" y1="370.0" x2="610.0" y2="440.0" stroke="#757575" stroke-width="2" marker-end="url(#arrowhead)" /></svg>