<svg xmlns="http://www.w3.org/2000/svg" viewBox="0 0 900 240" width="900" height="240" font-family="Segoe UI, sans-serif"><rect x="0" y="0" width="900" height="240" fill="#FAFAFA" rx="8" /><text x="450" y="40" text-anchor="middle" font-size="22" font-weight="bold" fill="#1A237E">Processo de Product Discovery</text><rect x="60" y="110" width="136" height="70" fill="#E3F2FD" stroke="#1A237E" stroke-width="2" rx="6" /><text x="128" y="151" text-anchor="middle" font-size="14" font-weight="600" fill="#1A237E">Oportunidade</text><line x1="196" y1="145" x2="216" y2="145" stroke="#00BFA5" stroke-width="3" marker-end="url(#arrow-green)" /><rect x="216" y="110" width="136" height="70" fill="#E3F2FD" stroke="#1A237E" stroke-width="2" rx="6" /><text x="284" y="151" text-anchor="middle" font-size="14" font-weight="600" fill="#1A237E">Pesquisa</text><line x1="352" y1="145" x2="372" y2="145" stroke="#00BFA5" stroke-width="3" marker-end="url(#arrow-green)" /><rect x="372" y="110" width="136" height="70" fill="#E3F2FD" stroke="#1A237E" stroke-width="2" rx="6" /><text x="440" y="151" text-anchor="middle" font-size="14" font-weight="600" fill="#1A237E">Ideacao</text><line x1="508" y1="145" x2="528" y2="145" stroke="#00BFA5" stroke-width="3" marker-end="url(#arrow-green)" /><rect x="528" y="110" width="136" height="70" fill="#E3F2FD" stroke="#1A237E" stroke-width="2" rx="6" /><text x="596" y="151" text-anchor="middle" font-size="14" font-weight="600" fill="#1A237E">Prototipacao</text><line x1="664" y1="145" x2="684" y2="145" stroke="#00BFA5" stroke-width="3" marker-end="url(#arrow-green)" /><rect x="684" y="110" width="136" height="70" fill="#E3F2FD" stroke="#1A237E" stroke-width="2" rx="6" /><text x="752" y="151" text-anchor="middle" font-size="14" font-weight="600" fill="#1A237E">Validacao</text><defs><marker id="arrow-green" markerWidth="10" markerHeight="7" refX="9" refY="3.5" orient="auto"><polygon points="0 0, 10 3.5, 0 7" fill="#00BFA5" /></marker></defs></svg>