<svg xmlns="http://www.w3.org/2000/svg" viewBox="0 0 800 600" width="800" height="600" font-family="Segoe UI, sans-serif"><rect x="0" y="0" width="800" height="600" fill="#FAFAFA" rx="8" /><text x="400" y="40" text-anchor="middle" font-size="22" font-weight="bold" fill="#1A237E">Product Discovery</text><circle cx="400" cy="310" r="55" fill="#1A237E" stroke="#0D47A1" stroke-width="3" /><text x="400" y="316" text-anchor="middle" font-size="16" font-weight="bold" fill="#FFFFFF">Discovery</text><line x1="400" y1="310" x2="400.0" y2="130.0" stroke="#1A237E" stroke-width="3" /><circle cx="400.0" cy="130.0" r="12" fill="#1A237E" /><text x="380.0" y="135.0" text-anchor="end" font-size="16" font-weight="bold" fill="#1A237E">Pesquisa</text><line x1="400.0" y1="130.0" x2="340.0" y2="26.07695154586736" stroke="#BDBDBD" stroke-width="1.5" /><circle cx="340.0" cy="26.07695154586736" r="6" fill="#FFFFFF" stroke="#1A237E" stroke-width="2" /><text x="322.0" y="30.07695154586736" text-anchor="end" font-size="12" fill="#212121">Entrevistas</text><line x1="400.0" y1="130.0" x2="379.1622186799684" y2="11.823069638535031" stroke="#BDBDBD" stroke-width="1.5" /><circle cx="379.1622186799684" cy="11.823069638535031" r="6" fill="#FFFFFF" stroke="#1A237E" stroke-width="2" /><text x="361.1622186799684" y="15.823069638535031" text-anchor="end" font-size="12" fill="#212121">Surveys</text><line x1="400.0" y1="130.0" x2="420.8377813200317" y2="11.823069638535031" stroke="#BDBDBD" stroke-width="1.5" /><circle cx="420.8377813200317" cy="11.823069638535031" r="6" fill="#FFFFFF" stroke="#1A237E" stroke-width="2" /><text x="438.8377813200317" y="15.823069638535031" text-anchor="start" font-size="12" fill="#212121">Analytics</text><line x1="400.0" y1="130.0" x2="460.0" y2="26.076951545867374" stroke="#BDBDBD" stroke-width="1.5" /><circle cx="460.0" cy="26.076951545867374" r="6" fill="#FFFFFF" stroke="#1A237E" stroke-width="2" /><text x="478.0" y="30.076951545867374" text-anchor="start" font-size="12" fill="#212121">Concorrencia</text><line x1="400" y1="310" x2="580.0" y2="310.0" stroke="#00BFA5" stroke-width="3" /><circle cx="580.0" cy="310.0" r="12" fill="#00BFA5" /><text x="600.0" y="315.0" text-anchor="start" font-size="16" font-weight="bold" fill="#00BFA5">Frameworks</text><line x1="580.0" y1="310.0" x2="683.9230484541326" y2="250.0" stroke="#BDBDBD" stroke-width="1.5" /><circle cx="683.9230484541326" cy="250.0" r="6" fill="#FFFFFF" stroke="#00BFA5" stroke-width="2" /><text x="701.9230484541326" y="254.0" text-anchor="start" font-size="12" fill="#212121">JTBD</text><line x1="580.0" y1="310.0" x2="698.176930361465" y2="289.16221867996836" stroke="#BDBDBD" stroke-width="1.5" /><circle cx="698.176930361465" cy="289.16221867996836" r="6" fill="#FFFFFF" stroke="#00BFA5" stroke-width="2" /><text x="716.176930361465" y="293.16221867996836" text-anchor="start" font-size="12" fill="#212121">Value Proposition</text><line x1="580.0" y1="310.0" x2="698.176930361465" y2="330.83778132003164" stroke="#BDBDBD" stroke-width="1.5" /><circle cx="698.176930361465" cy="330.83778132003164" r="6" fill="#FFFFFF" stroke="#00BFA5" stroke-width="2" /><text x="716.176930361465" y="334.83778132003164" text-anchor="start" font-size="12" fill="#212121">Lean Canvas</text><line x1="580.0" y1="310.0" x2="683.9230484541326" y2="370.0" stroke="#BDBDBD" stroke-width="1.5" /><circle cx="683.9230484541326" cy="370.0" r="6" fill="#FFFFFF" stroke="#00BFA5" stroke-width="2" /><text x="701.9230484541326" y="374.0" text-anchor="start" font-size="12" fill="#212121">Opportunity Tree</text><line x1="400" y1="310" x2="400.0" y2="490.0" stroke="#F57F17" stroke-width="3" /><circle cx="400.0" cy="490.0" r="12" fill="#F57F17" /><text x="380.0" y="495.0" text-anchor="end" font-size="16" font-weight="bold" fill="#F57F17">Validacao</text><line x1="400.0" y1="490.0" x2="460.0" y2="593.9230484541326" stroke="#BDBDBD" stroke-width="1.5" /><circle cx="460.0" cy="593.9230484541326" r="6" fill="#FFFFFF" stroke="#F57F17" stroke-width="2" /><text x="478.0" y="597.9230484541326" text-anchor="start" font-size="12" fill="#212121">MVP</text><line x1="400.0" y1="490.0" x2="420.83778132003164" y2="608.176930361465" stroke="#BDBDBD" stroke-width="1.5" /><circle cx="420.83778132003164" cy="608.176930361465" r="6" fill="#FFFFFF" stroke="#F57F17" stroke-width="2" /><text x="438.83778132003164" y="612.176930361465" text-anchor="start" font-size="12" fill="#212121">Landing Page</text><line x1="400.0" y1="490.0" x2="379.16221867996836" y2="608.176930361465" stroke="#BDBDBD" stroke-width="1.5" /><circle cx="379.16221867996836" cy="608.176930361465" r="6" fill="#FFFFFF" stroke="#F57F17" stroke-width="2" /><text x="361.16221867996836" y="612.176930361465" text-anchor="end" font-size="12" fill="#212121">Teste A/B</text><line x1="400.0" y1="490.0" x2="340.0" y2="593.9230484541326" stroke="#BDBDBD" stroke-width="1.5" /><circle cx="340.0" cy="593.9230484541326" r="6" fill="#FFFFFF" stroke="#F57F17" stroke-width="2" /><text x="322.0" y="597.9230484541326" text-anchor="end" font-size="12" fill="#212121">Entrevista</text><line x1="400" y1="310" x2="220.0" y2="310.0" stroke="#2E7D32" stroke-width="3" /><circle cx="220.0" cy="310.0" r="12" fill="#2E7D32" /><text x="200.0" y="315.0" text-anchor="end" font-size="16" font-weight="bold" fill="#2E7D32">Saidas</text><line x1="220.0" y1="310.0" x2="116.07695154586736" y2="370.0" stroke="#BDBDBD" stroke-width="1.5" /><circle cx="116.07695154586736" cy="370.0" r="6" fill="#FFFFFF" stroke="#2E7D32" stroke-width="2" /><text x="98.07695154586736" y="374.0" text-anchor="end" font-size="12" fill="#212121">Backlog</text><line x1="220.0" y1="310.0" x2="101.82306963853503" y2="330.83778132003164" stroke="#BDBDBD" stroke-width="1.5" /><circle cx="101.82306963853503" cy="330.83778132003164" r="6" fill="#FFFFFF" stroke="#2E7D32" stroke-width="2" /><text x="83.82306963853503" y="334.83778132003164" text-anchor="end" font-size="12" fill="#212121">Personas</text><line x1="220.0" y1="310.0" x2="101.82306963853503" y2="289.16221867996836" stroke="#BDBDBD" stroke-width="1.5" /><circle cx="101.82306963853503" cy="289.16221867996836" r="6" fill="#FFFFFF" stroke="#2E7D32" stroke-width="2" /><text x="83.82306963853503" y="293.16221867996836" text-anchor="end" font-size="12" fill="#212121">User Stories</text><line x1="220.0" y1="310.0" x2="116.07695154586737" y2="250.0" stroke="#BDBDBD" stroke-width="1.5" /><circle cx="116.07695154586737" cy="250.0" r="6" fill="#FFFFFF" stroke="#2E7D32" stroke-width="2" /><text x="98.07695154586737" y="254.0" text-anchor="end" font-size="12" fill="#212121">Métricas</text></svg>