<svg xmlns="http://www.w3.org/2000/svg" viewBox="0 0 800 400" width="800" height="400" font-family="Segoe UI, sans-serif"><rect x="0" y="0" width="800" height="400" fill="#FAFAFA" rx="8" /><text x="400" y="40" text-anchor="middle" font-size="22" font-weight="bold" fill="#1A237E">Comparacao de Frameworks Frontend</text><rect x="140.0" y="80" width="155.0" height="50" fill="#1A237E" /><text x="217.5" y="110.0" text-anchor="middle" font-size="13" font-weight="bold" fill="#FFFFFF">Curva de Aprendizado</text><rect x="295.0" y="80" width="155.0" height="50" fill="#1A237E" /><text x="372.5" y="110.0" text-anchor="middle" font-size="13" font-weight="bold" fill="#FFFFFF">Performance</text><rect x="450.0" y="80" width="155.0" height="50" fill="#1A237E" /><text x="527.5" y="110.0" text-anchor="middle" font-size="13" font-weight="bold" fill="#FFFFFF">Ecossistema</text><rect x="605.0" y="80" width="155.0" height="50" fill="#1A237E" /><text x="682.5" y="110.0" text-anchor="middle" font-size="13" font-weight="bold" fill="#FFFFFF">Empresas</text><rect x="20" y="130" width="120" height="50" fill="#E3F2FD" stroke="#BDBDBD" stroke-width="0.5" /><text x="110" y="160.0" text-anchor="end" font-size="14" font-weight="bold" fill="#1A237E">React</text><rect x="140.0" y="130" width="155.0" height="50" fill="#FFFFFF" stroke="#BDBDBD" stroke-width="0.5" /><circle cx="217.5" cy="155.0" r="16" fill="#F57F17" /><text x="217.5" y="160.0" text-anchor="middle" font-size="14" font-weight="bold" fill="#FFFFFF">3</text><rect x="295.0" y="130" width="155.0" height="50" fill="#FFFFFF" stroke="#BDBDBD" stroke-width="0.5" /><circle cx="372.5" cy="155.0" r="16" fill="#2E7D32" /><text x="372.5" y="160.0" text-anchor="middle" font-size="14" font-weight="bold" fill="#FFFFFF">4</text><rect x="450.0" y="130" width="155.0" height="50" fill="#FFFFFF" stroke="#BDBDBD" stroke-width="0.5" /><circle cx="527.5" cy="155.0" r="16" fill="#2E7D32" /><text x="527.5" y="160.0" text-anchor="middle" font-size="14" font-weight="bold" fill="#FFFFFF">5</text><rect x="605.0" y="130" width="155.0" height="50" fill="#FFFFFF" stroke="#BDBDBD" stroke-width="0.5" /><circle cx="682.5" cy="155.0" r="16" fill="#2E7D32" /><text x="682.5" y="160.0" text-anchor="middle" font-size="14" font-weight="bold" fill="#FFFFFF">5</text><rect x="20" y="180" width="120" height="50" fill="#E3F2FD" stroke="#BDBDBD" stroke-width="0.5" /><text x="110" y="210.0" text-anchor="end" font-size="14" font-weight="bold" fill="#1A237E">Vue</text><rect x="140.0" y="180" width="155.0" height="50" fill="#FFFFFF" stroke="#BDBDBD" stroke-width="0.5" /><circle cx="217.5" cy="205.0" r="16" fill="#2E7D32" /><text x="217.5" y="210.0" text-anchor="middle" font-size="14" font-weight="bold" fill="#FFFFFF">4</text><rect x="295.0" y="180" width="155.0" height="50" fill="#FFFFFF" stroke="#BDBDBD" stroke-width="0.5" /><circle cx="372.5" cy="205.0" r="16" fill="#2E7D32" /><text x="372.5" y="210.0" text-anchor="middle" font-size="14" font-weight="bold" fill="#FFFFFF">4</text><rect x="450.0" y="180" width="155.0" height="50" fill="#FFFFFF" stroke="#BDBDBD" stroke-width="0.5" /><circle cx="527.5" cy="205.0" r="16" fill="#2E7D32" /><text x="527.5" y="210.0" text-anchor="middle" font-size="14" font-weight="bold" fill="#FFFFFF">4</text><rect x="605.0" y="180" width="155.0" height="50" fill="#FFFFFF" stroke="#BDBDBD" stroke-width="0.5" /><circle cx="682.5" cy="205.0" r="16" fill="#F57F17" /><text x="682.5" y="210.0" text-anchor="middle" font-size="14" font-weight="bold" fill="#FFFFFF">3</text><rect x="20" y="230" width="120" height="50" fill="#E3F2FD" stroke="#BDBDBD" stroke-width="0.5" /><text x="110" y="260.0" text-anchor="end" font-size="14" font-weight="bold" fill="#1A237E">Angular</text><rect x="140.0" y="230" width="155.0" height="50" fill="#FFFFFF" stroke="#BDBDBD" stroke-width="0.5" /><circle cx="217.5" cy="255.0" r="16" fill="#C62828" /><text x="217.5" y="260.0" text-anchor="middle" font-size="14" font-weight="bold" fill="#FFFFFF">2</text><rect x="295.0" y="230" width="155.0" height="50" fill="#FFFFFF" stroke="#BDBDBD" stroke-width="0.5" /><circle cx="372.5" cy="255.0" r="16" fill="#F57F17" /><text x="372.5" y="260.0" text-anchor="middle" font-size="14" font-weight="bold" fill="#FFFFFF">3</text><rect x="450.0" y="230" width="155.0" height="50" fill="#FFFFFF" stroke="#BDBDBD" stroke-width="0.5" /><circle cx="527.5" cy="255.0" r="16" fill="#2E7D32" /><text x="527.5" y="260.0" text-anchor="middle" font-size="14" font-weight="bold" fill="#FFFFFF">5</text><rect x="605.0" y="230" width="155.0" height="50" fill="#FFFFFF" stroke="#BDBDBD" stroke-width="0.5" /><circle cx="682.5" cy="255.0" r="16" fill="#2E7D32" /><text x="682.5" y="260.0" text-anchor="middle" font-size="14" font-weight="bold" fill="#FFFFFF">5</text><rect x="20" y="280" width="120" height="50" fill="#E3F2FD" stroke="#BDBDBD" stroke-width="0.5" /><text x="110" y="310.0" text-anchor="end" font-size="14" font-weight="bold" fill="#1A237E">Svelte</text><rect x="140.0" y="280" width="155.0" height="50" fill="#FFFFFF" stroke="#BDBDBD" stroke-width="0.5" /><circle cx="217.5" cy="305.0" r="16" fill="#2E7D32" /><text x="217.5" y="310.0" text-anchor="middle" font-size="14" font-weight="bold" fill="#FFFFFF">4</text><rect x="295.0" y="280" width="155.0" height="50" fill="#FFFFFF" stroke="#BDBDBD" stroke-width="0.5" /><circle cx="372.5" cy="305.0" r="16" fill="#2E7D32" /><text x="372.5" y="310.0" text-anchor="middle" font-size="14" font-weight="bold" fill="#FFFFFF">5</text><rect x="450.0" y="280" width="155.0" height="50" fill="#FFFFFF" stroke="#BDBDBD" stroke-width="0.5" /><circle cx="527.5" cy="305.0" r="16" fill="#C62828" /><text x="527.5" y="310.0" text-anchor="middle" font-size="14" font-weight="bold" fill="#FFFFFF">2</text><rect x="605.0" y="280" width="155.0" height="50" fill="#FFFFFF" stroke="#BDBDBD" stroke-width="0.5" /><circle cx="682.5" cy="305.0" r="16" fill="#C62828" /><text x="682.5" y="310.0" text-anchor="middle" font-size="14" font-weight="bold" fill="#FFFFFF">2</text></svg>