<svg xmlns="http://www.w3.org/2000/svg" viewBox="0 0 800 500" width="800" height="500" font-family="Segoe UI, sans-serif"><rect x="0" y="0" width="800" height="500" fill="#FAFAFA" rx="8" /><text x="400" y="35" text-anchor="middle" font-size="20" font-weight="bold" fill="#1A237E">Arquitetura de Referencia Backend - Container</text><rect x="30.0" y="115.0" width="140.0" height="70" rx="6" fill="#1A237E" /><text x="100.0" y="145.0" text-anchor="middle" font-size="13" font-weight="bold" fill="white">Usuario</text><text x="100.0" y="165.0" text-anchor="middle" font-size="10" fill="white" font-style="italic">[Browser/Mobile]</text><rect x="230.0" y="115.0" width="140.0" height="70" rx="6" fill="#1565C0" /><text x="300.0" y="145.0" text-anchor="middle" font-size="13" font-weight="bold" fill="white">Web App</text><text x="300.0" y="165.0" text-anchor="middle" font-size="10" fill="white" font-style="italic">[Next.js]</text><rect x="430.0" y="115.0" width="140.0" height="70" rx="6" fill="#00BFA5" /><text x="500.0" y="145.0" text-anchor="middle" font-size="13" font-weight="bold" fill="white">API Gateway</text><text x="500.0" y="165.0" text-anchor="middle" font-size="10" fill="white" font-style="italic">[Kong/NestJS]</text><rect x="630.0" y="115.0" width="140.0" height="70" rx="6" fill="#FF8F00" /><text x="700.0" y="145.0" text-anchor="middle" font-size="13" font-weight="bold" fill="white">Auth Service</text><text x="700.0" y="165.0" text-anchor="middle" font-size="10" fill="white" font-style="italic">[NestJS + JWT]</text><rect x="30.0" y="255.0" width="140.0" height="70" rx="6" fill="#FF8F00" /><text x="100.0" y="285.0" text-anchor="middle" font-size="13" font-weight="bold" fill="white">Core API</text><text x="100.0" y="305.0" text-anchor="middle" font-size="10" fill="white" font-style="italic">[NestJS + DDD]</text><rect x="230.0" y="255.0" width="140.0" height="70" rx="6" fill="#FF8F00" /><text x="300.0" y="285.0" text-anchor="middle" font-size="13" font-weight="bold" fill="white">Notifications</text><text x="300.0" y="305.0" text-anchor="middle" font-size="10" fill="white" font-style="italic">[NestJS + WebSocket]</text><rect x="430.0" y="255.0" width="140.0" height="70" rx="6" fill="#E91E63" /><text x="500.0" y="285.0" text-anchor="middle" font-size="13" font-weight="bold" fill="white">PostgreSQL</text><text x="500.0" y="305.0" text-anchor="middle" font-size="10" fill="white" font-style="italic">[SQL]</text><rect x="630.0" y="255.0" width="140.0" height="70" rx="6" fill="#E91E63" /><text x="700.0" y="285.0" text-anchor="middle" font-size="13" font-weight="bold" fill="white">Redis</text><text x="700.0" y="305.0" text-anchor="middle" font-size="10" fill="white" font-style="italic">[Cache]</text><rect x="30.0" y="395.0" width="140.0" height="70" rx="6" fill="#757575" /><text x="100.0" y="425.0" text-anchor="middle" font-size="13" font-weight="bold" fill="white">S3</text><text x="100.0" y="445.0" text-anchor="middle" font-size="10" fill="white" font-style="italic">[Object Storage]</text><line x1="100.0" y1="150.0" x2="300.0" y2="150.0" stroke="#555" stroke-width="1.5" /><text x="200.0" y="142.0" text-anchor="middle" font-size="10" fill="#555">acessa</text><line x1="300.0" y1="150.0" x2="500.0" y2="150.0" stroke="#555" stroke-width="1.5" /><text x="400.0" y="142.0" text-anchor="middle" font-size="10" fill="#555">HTTPS</text><line x1="500.0" y1="150.0" x2="700.0" y2="150.0" stroke="#555" stroke-width="1.5" /><text x="600.0" y="142.0" text-anchor="middle" font-size="10" fill="#555">autentica</text><line x1="500.0" y1="150.0" x2="100.0" y2="290.0" stroke="#555" stroke-width="1.5" /><text x="300.0" y="212.0" text-anchor="middle" font-size="10" fill="#555">processa</text><line x1="100.0" y1="290.0" x2="300.0" y2="290.0" stroke="#555" stroke-width="1.5" /><text x="200.0" y="282.0" text-anchor="middle" font-size="10" fill="#555">notifica</text><line x1="100.0" y1="290.0" x2="500.0" y2="290.0" stroke="#555" stroke-width="1.5" /><text x="300.0" y="282.0" text-anchor="middle" font-size="10" fill="#555">SQL</text><line x1="100.0" y1="290.0" x2="700.0" y2="290.0" stroke="#555" stroke-width="1.5" /><text x="400.0" y="282.0" text-anchor="middle" font-size="10" fill="#555">cache</text><line x1="100.0" y1="290.0" x2="100.0" y2="430.0" stroke="#555" stroke-width="1.5" /><text x="100.0" y="352.0" text-anchor="middle" font-size="10" fill="#555">upload</text></svg>