<svg xmlns="http://www.w3.org/2000/svg" viewBox="0 0 800 500" width="800" height="500" font-family="Segoe UI, sans-serif"><rect x="0" y="0" width="800" height="500" fill="#FAFAFA" rx="8" /><text x="400" y="35" text-anchor="middle" font-size="20" font-weight="bold" fill="#1A237E">Onboarding de Tenant - Auth e Convite</text><rect x="68.33333333333334" y="100" width="80" height="30" rx="4" fill="#1A237E" /><text x="108.33333333333334" y="120" text-anchor="middle" font-size="12" fill="white" font-weight="bold">Owner</text><line x1="108.33333333333334" y1="130" x2="108.33333333333334" y2="460" stroke="#BDBDBD" stroke-width="2" stroke-dasharray="6,4" /><rect x="176.66666666666669" y="100" width="96.66666666666667" height="30" rx="4" fill="#1A237E" /><text x="225.00000000000003" y="120" text-anchor="middle" font-size="12" fill="white" font-weight="bold">Frontend</text><line x1="225.00000000000003" y1="130" x2="225.00000000000003" y2="460" stroke="#BDBDBD" stroke-width="2" stroke-dasharray="6,4" /><rect x="293.33333333333337" y="100" width="96.66666666666667" height="30" rx="4" fill="#1A237E" /><text x="341.6666666666667" y="120" text-anchor="middle" font-size="12" fill="white" font-weight="bold">Auth Service</text><line x1="341.6666666666667" y1="130" x2="341.6666666666667" y2="460" stroke="#BDBDBD" stroke-width="2" stroke-dasharray="6,4" /><rect x="410.0" y="100" width="96.66666666666667" height="30" rx="4" fill="#1A237E" /><text x="458.3333333333333" y="120" text-anchor="middle" font-size="12" fill="white" font-weight="bold">Tenant Service</text><line x1="458.3333333333333" y1="130" x2="458.3333333333333" y2="460" stroke="#BDBDBD" stroke-width="2" stroke-dasharray="6,4" /><rect x="526.6666666666667" y="100" width="96.66666666666667" height="30" rx="4" fill="#1A237E" /><text x="575.0000000000001" y="120" text-anchor="middle" font-size="12" fill="white" font-weight="bold">Email Provider</text><line x1="575.0000000000001" y1="130" x2="575.0000000000001" y2="460" stroke="#BDBDBD" stroke-width="2" stroke-dasharray="6,4" /><rect x="669.6666666666667" y="100" width="44" height="30" rx="4" fill="#1A237E" /><text x="691.6666666666667" y="120" text-anchor="middle" font-size="12" fill="white" font-weight="bold">DB</text><line x1="691.6666666666667" y1="130" x2="691.6666666666667" y2="460" stroke="#BDBDBD" stroke-width="2" stroke-dasharray="6,4" /><line x1="108.33333333333334" y1="160" x2="225.00000000000003" y2="160" stroke="#555" stroke-width="1.5" /><polygon points="225.00000000000003,160 217.00000000000003,156 217.00000000000003,164" fill="#555" /><text x="166.66666666666669" y="152" text-anchor="middle" font-size="10" fill="#1A237E" font-weight="bold">preenche cadastro</text><line x1="225.00000000000003" y1="200" x2="341.6666666666667" y2="200" stroke="#555" stroke-width="1.5" /><polygon points="341.6666666666667,200 333.6666666666667,196 333.6666666666667,204" fill="#555" /><text x="283.33333333333337" y="192" text-anchor="middle" font-size="10" fill="#1A237E" font-weight="bold">POST /register</text><line x1="341.6666666666667" y1="240" x2="458.3333333333333" y2="240" stroke="#555" stroke-width="1.5" /><polygon points="458.3333333333333,240 450.3333333333333,236 450.3333333333333,244" fill="#555" /><text x="400.0" y="232" text-anchor="middle" font-size="10" fill="#1A237E" font-weight="bold">createTenant()</text><line x1="458.3333333333333" y1="280" x2="691.6666666666667" y2="280" stroke="#555" stroke-width="1.5" /><polygon points="691.6666666666667,280 683.6666666666667,276 683.6666666666667,284" fill="#555" /><text x="575.0" y="272" text-anchor="middle" font-size="10" fill="#1A237E" font-weight="bold">INSERT Tenant</text><line x1="691.6666666666667" y1="320" x2="458.3333333333333" y2="320" stroke="#888" stroke-width="1.5" stroke-dasharray="4,3" /><text x="575.0" y="312" text-anchor="middle" font-size="10" fill="#555" font-style="italic">tenant criado</text><line x1="458.3333333333333" y1="360" x2="341.6666666666667" y2="360" stroke="#888" stroke-width="1.5" stroke-dasharray="4,3" /><text x="400.0" y="352" text-anchor="middle" font-size="10" fill="#555" font-style="italic">tenant vinculado</text><line x1="341.6666666666667" y1="400" x2="575.0000000000001" y2="400" stroke="#555" stroke-width="1.5" /><polygon points="575.0000000000001,400 567.0000000000001,396 567.0000000000001,404" fill="#555" /><text x="458.33333333333337" y="392" text-anchor="middle" font-size="10" fill="#1A237E" font-weight="bold">sendWelcomeEmail()</text><line x1="341.6666666666667" y1="440" x2="225.00000000000003" y2="440" stroke="#888" stroke-width="1.5" stroke-dasharray="4,3" /><text x="283.33333333333337" y="432" text-anchor="middle" font-size="10" fill="#555" font-style="italic">201 + JWT</text><line x1="225.00000000000003" y1="480" x2="108.33333333333334" y2="480" stroke="#888" stroke-width="1.5" stroke-dasharray="4,3" /><text x="166.66666666666669" y="472" text-anchor="middle" font-size="10" fill="#555" font-style="italic">redirect dashboard</text></svg>